<?xml version="1.0" encoding="UTF-8"?>
<svg viewBox="0 0 879.03607 364.68909" xmlns="http://www.w3.org/2000/svg">
  <g style="fill:#fff;fill-opacity:1" transform="translate(-84.315816,-96.868834)">
    <path d="m 632.62927,181.99991 c 0.002,-12.83293 -0.0723,-25.16649 0.0302,-37.49858 0.0958,-11.52489 8.35247,-19.75563 19.97979,-19.78687 29.66559,-0.0797 59.33154,-0.0704 88.99713,-0.002 8.77338,0.0202 16.23346,3.43857 22.21711,9.81075 6.72949,7.16638 13.31066,14.47267 19.91949,21.75151 5.72455,6.30481 8.65076,13.6801 8.63068,22.26479 -0.0527,22.49903 0.006,44.99833 -0.0215,67.49746 -0.008,6.60878 -1.57611,8.09871 -8.33307,8.16965 -3.33276,0.035 -6.66882,0.0697 -9.99902,-0.0337 -5.55322,-0.17253 -7.36938,-2.03697 -7.37811,-7.69732 -0.0326,-21.16597 -0.0867,-42.33251 0.0516,-63.49764 0.0292,-4.45788 -1.17297,-8.01047 -4.34155,-11.21162 -4.92078,-4.97124 -9.80273,-10.02883 -14.19623,-15.45835 -3.27344,-4.04535 -6.96539,-5.49244 -12.07873,-5.3148 -12.83057,0.44571 -10.45728,-1.30766 -10.60163,10.73262 -0.33368,27.82852 -0.10839,55.66368 -0.12408,83.49614 -0.004,7.58453 -1.38764,8.95615 -9.03345,9.01027 -3.33276,0.0236 -6.66754,0.0291 -9.99884,-0.0567 -4.42084,-0.11386 -6.78595,-2.31562 -6.71539,-6.8739 0.0258,-1.66609 -3.1e-4,-3.33316 -0.0144,-4.99966 -0.2301,-27.32662 -0.44336,-54.65338 -0.70831,-81.97966 -0.0582,-6.00414 -2.37762,-8.85353 -8.21502,-9.05065 -9.32026,-0.31476 -18.65851,-0.0837 -27.98896,-0.12007 -2.98401,-0.0116 -4.16607,1.63011 -4.25,4.36957 -0.0459,1.49879 -0.0594,2.99908 -0.0597,4.4987 -0.006,28.33246 -0.003,56.6649 -0.0138,84.99736 -0.003,7.85663 -1.34632,9.15776 -9.38025,9.193 -2.33319,0.0102 -4.66663,0.0102 -6.99982,-3e-5 -8.02478,-0.0351 -9.37152,-1.35145 -9.37348,-9.21323 -0.005,-20.83237 -9.1e-4,-41.66474 -7.3e-4,-62.9971 z" />
    <path d="m 587.98584,307 c 6.1e-4,-31.82953 -0.0115,-63.15909 0.0115,-94.4886 0.007,-9.42584 1.17585,-10.53601 10.71021,-10.55846 2.66632,-0.006 5.33447,-0.0538 7.9986,0.0256 6.19152,0.18466 7.59729,1.60433 7.6087,7.77541 0.0318,17.16453 0.14508,34.33058 -0.0543,51.49276 -0.0501,4.31311 1.19598,5.8498 5.64093,5.82578 8.6488,-0.0467 17.32605,-0.68646 25.95929,0.47443 7.36523,0.99038 13.69116,4.04226 18.75811,9.51525 6.90467,7.45811 13.86017,14.87351 20.59424,22.48383 5.37085,6.06961 8.14325,13.25794 8.13691,21.4534 -0.0173,22.33063 0.004,44.66123 -0.008,66.99185 -0.004,7.22657 -1.10364,8.28809 -8.47461,8.31876 -3.49951,0.0146 -6.99969,-0.0523 -10.49847,-0.003 -4.49658,0.0629 -6.62848,-1.96707 -6.85144,-6.59213 -0.93958,-19.49017 -0.68549,-38.99982 -0.21204,-58.47317 0.22101,-9.09208 -2.03808,-16.03507 -8.83368,-21.99695 -4.23425,-3.71478 -7.79272,-8.21204 -11.55945,-12.44272 -2.13647,-2.39966 -4.59246,-3.56461 -7.88226,-3.48477 -6.49524,0.15762 -13.0072,0.25085 -19.49298,-0.0474 -4.32342,-0.19882 -5.29791,1.60843 -5.28009,5.57752 0.13281,29.49585 0.0848,58.99258 0.0845,88.48901 -6e-5,7.80368 -1.15686,8.95743 -8.93731,8.98218 -3.33289,0.0106 -6.66742,0.0558 -9.99842,-0.0275 -5.22986,-0.13067 -7.17663,-1.97201 -7.38348,-7.30246 -0.18079,-4.65945 -0.0701,-9.33068 -0.0685,-13.9967 0.007,-22.49725 0.0211,-44.99451 0.032,-67.99176 z" />
    <path d="m 428.99316,233.01443 c -9.29535,-8.38478 -18.44146,-16.41047 -27.33102,-24.71093 -8.78397,-8.20185 -8.95548,-14.01184 -1.20435,-23.2818 13.46708,-16.10599 26.978,-32.1756 40.38028,-48.33533 6.61622,-7.97745 15.1045,-11.8524 25.32532,-11.93362 13.99851,-0.11124 27.99912,-0.10694 41.9978,-0.008 13.88275,0.0979 22.07093,8.31636 22.09491,22.19036 0.057,32.99845 0.0343,65.99707 0.022,98.99562 -0.003,7.14917 -1.18726,8.27353 -8.51923,8.30716 -3.83301,0.0176 -7.66876,0.075 -11.49884,-0.0368 -5.17905,-0.15122 -6.50165,-1.5755 -6.51611,-7.20053 -0.053,-20.66565 -0.0411,-41.33147 -0.05,-61.99723 -0.004,-9.33291 -0.12686,-18.66842 0.0616,-27.99754 0.0794,-3.93431 -1.03479,-5.8273 -5.32281,-5.75231 -10.49625,0.18357 -20.99857,0.12145 -31.49698,0.014 -2.80988,-0.0288 -4.6814,1.17596 -6.38022,3.21306 -10.24213,12.28137 -20.47067,24.57522 -30.85095,36.73931 -2.49668,2.92566 -2.34491,4.85698 0.56482,7.40445 9.90353,8.67063 19.6282,17.54627 29.38,26.38897 2.09928,1.90348 4.43909,2.72969 7.267,2.69903 7.49875,-0.0813 14.99902,-0.024 22.49869,-0.0172 2.01947,0.002 4.15521,-0.0887 5.22717,2.08533 1.15781,2.34825 -0.74145,3.72822 -2.01654,5.16301 -4.86954,5.47949 -9.83398,10.87457 -14.71481,16.34413 -1.38651,1.55377 -2.91803,2.75078 -5.05707,2.88098 -11.70767,0.71254 -22.56738,-1.23061 -31.42877,-9.77838 -3.95636,-3.81633 -8.10752,-7.4307 -12.43186,-11.37548 z" />
    <path d="m 830.42407,274.68463 c 3.84528,4.66196 4.63947,9.90936 4.64685,15.30457 0.0447,32.64981 0.0421,65.29974 0.011,97.94958 -0.007,7.32611 -1.10285,8.34281 -8.39881,8.36682 -3.83129,0.0126 -7.66973,-0.15313 -11.4923,0.0282 -4.68592,0.22223 -6.63434,-1.76559 -6.56513,-6.4903 0.15857,-10.82537 0.0412,-21.65472 0.0399,-32.48248 -0.002,-19.32339 -0.11133,-38.64792 0.0803,-57.96939 0.044,-4.44555 -1.10846,-6.26996 -5.87201,-6.12237 -9.98523,0.30941 -19.98712,0.139 -29.98139,0.0588 -2.82702,-0.0227 -5.21545,0.56839 -7.10821,2.8339 -10.888,13.03234 -21.81555,26.03173 -32.70953,39.0592 -0.51832,0.61984 -0.84559,1.39941 -1.49152,2.49359 8.62384,7.87564 17.56397,15.34549 25.65265,23.64508 6.5661,6.73737 13.7608,9.75217 23.10242,8.66013 4.9262,-0.57587 9.99536,-0.27927 14.9732,0.0404 4.50653,0.28946 5.62775,2.87925 2.69049,6.29587 -5.31622,6.18405 -10.47741,12.62116 -16.54913,17.99744 -4.70459,4.16568 -11.18573,2.11001 -16.81232,1.4216 -6.90252,-0.84451 -12.9433,-4.073 -18.13544,-8.8219 -13.02758,-11.91562 -26.1784,-23.69742 -39.13793,-35.68628 -9.84937,-9.11169 -10.14203,-13.96863 -1.69446,-24.17981 13.26922,-16.03955 26.71954,-31.92993 39.91967,-48.02569 6.61255,-8.06299 15.16193,-11.83072 25.2862,-11.99994 13.98883,-0.23383 27.98492,-0.1193 41.97705,-0.0239 6.73956,0.046 12.83533,1.89362 17.56854,7.64682 z" />
    <path d="m 514.28766,271.05777 c 5.74719,-3.0816 11.55231,-4.15738 17.66357,-4.11148 11.15857,0.0839 22.31861,-0.0182 33.4773,0.0584 6.56585,0.045 7.86175,1.42377 7.90637,7.9321 0.0251,3.66403 0.033,7.3287 -0.004,10.99255 -0.0642,6.31085 -1.0329,7.36124 -7.22266,7.39777 -11.49194,0.0678 -22.98535,0.12255 -34.47613,-0.004 -3.13019,-0.0344 -5.30988,1.05523 -7.32251,3.38211 -10.78223,12.46554 -21.59333,24.90842 -32.58573,37.18789 -2.38671,2.66614 -2.58133,4.36789 -0.0705,7.0625 8.0585,8.64844 15.93088,17.47397 23.72375,26.36377 2.15344,2.45658 4.71613,2.7945 7.61969,2.78922 15.15656,-0.0276 30.31305,-0.0261 45.46961,-0.0191 1.66327,7.6e-4 3.33642,0.008 4.987,0.1824 1.64538,0.17377 3.39856,0.35449 4.15948,2.22098 0.77753,1.90735 -0.44757,3.14313 -1.56769,4.38919 -5.00897,5.57177 -10.04602,11.11862 -15.02179,16.71988 -1.65936,1.86795 -3.58557,2.75396 -6.12475,2.73947 -12.49121,-0.0713 -24.98889,0.18576 -37.47211,-0.13993 -6.82962,-0.17822 -13.20715,-2.65759 -17.91962,-7.74047 -11.54663,-12.45423 -22.99749,-25.00864 -34.1166,-37.84357 -6.827,-7.88049 -6.8114,-18.65009 -0.0109,-26.56671 13.88712,-16.16641 28.07806,-32.07321 42.2623,-47.98135 1.73294,-1.94352 4.19229,-3.23939 6.64615,-5.01209 z" />
    <path d="m 954.8623,294.34668 c -11.97479,0.004 -23.46954,0.18082 -34.95452,-0.0777 -4.35462,-0.098 -5.73426,1.2103 -5.70661,5.64588 0.18152,29.14242 0.10779,58.28646 0.10047,87.42999 -0.002,7.96793 -0.98102,8.93674 -8.85663,8.95837 -3.6637,0.01 -7.33026,-0.0981 -10.99054,0.0127 -4.6864,0.14187 -6.68964,-2.21204 -6.66675,-6.69269 0.0187,-3.6636 0.003,-7.32745 0.003,-10.99118 -0.002,-29.14353 -0.0164,-58.28708 -10e-4,-87.4306 0.008,-15.02491 8.11548,-23.18647 23.13947,-23.23368 14.65485,-0.0461 29.31012,-0.0307 43.96497,0.029 7.45086,0.0304 8.40954,1.04059 8.44171,8.29404 0.0148,3.33066 0.0248,6.66144 0.007,9.99201 -0.0383,7.2926 -0.68085,7.93243 -8.48035,8.06387 z" />
    <path d="m 543.58539,201.99986 c -6.1e-4,-18.64728 -0.0449,-36.79466 0.0138,-54.94174 0.0419,-12.95 8.23602,-21.22579 21.16638,-21.30153 15.64936,-0.0917 31.29987,-0.0459 46.94959,0.005 5.71973,0.0186 7.14691,1.38267 7.31476,6.99946 0.12927,4.32444 0.0113,8.65632 -3.1e-4,12.98491 -0.0121,4.51988 -2.14929,6.59217 -6.79559,6.53649 -11.15308,-0.13371 -22.3089,-0.0347 -33.46362,-0.0308 -9.38654,0.003 -9.37787,0.002 -9.37738,9.20828 10e-4,28.13657 0.002,56.27312 -0.0117,84.40968 -0.003,7.36514 -0.95606,8.30124 -8.33832,8.3448 -2.9967,0.0177 -5.99365,0.0155 -8.99036,-9e-4 -7.5318,-0.0413 -8.44867,-0.91015 -8.46032,-8.26016 -0.023,-14.48443 -0.007,-28.96893 -0.007,-43.95343 z" />
    <path d="m 875.11084,281.05701 c -0.25745,36.26574 -0.50995,72.04043 -0.77417,107.815 -0.048,6.51044 -0.95233,7.38525 -7.64179,7.43066 -4.16027,0.0283 -8.32409,-0.1062 -12.48059,0.0212 -4.25756,0.13053 -6.06109,-2.06085 -6.22296,-6.02942 -0.0542,-1.32931 -0.0455,-2.66201 -0.0375,-3.99301 0.22265,-37.10617 0.44513,-74.21237 0.67822,-111.31848 0.0412,-6.55984 1.25812,-7.80551 7.87213,-7.95544 3.49298,-0.0792 6.99115,-0.0828 10.48364,0.008 6.36982,0.16474 7.97669,1.78479 8.12677,8.03891 0.0439,1.82956 5.5e-4,3.66123 -0.004,5.98307 z" />
  </g>
  <g style="display:inline;fill:#cd4321;fill-opacity:1" transform="translate(-78.315816,-84.868834)">
    <g>
      <path transform="translate(-6,-12)" d="m 327.32753,96.894225 c -3.31692,0.187649 -6.6384,0.515372 -9.92382,1.005859 -5.45868,0.814914 -8.97764,3.986656 -9.63282,8.703126 -0.77698,5.59333 -1.40152,11.20895 -2.04296,16.82031 -2.98169,26.08249 -6.05197,52.15541 -8.8086,78.26172 -0.44158,4.18207 -1.95368,5.32958 -5.9082,5.20313 -13.81475,-0.44175 -27.63939,-0.60022 -41.45899,-0.89649 -18.31671,-0.39267 -36.63191,-0.83681 -54.94921,-1.19726 -2.57547,-0.0507 -4.85244,-0.66011 -7.09375,-1.96485 -11.37342,-6.62077 -22.79332,-13.16248 -34.22657,-19.67969 -2.05519,-1.17145 -3.85565,-2.52006 -5.33593,-4.4082 -11.41028,-14.55385 -22.83112,-29.09948 -34.36329,-43.55664 -1.85736,-2.3285 -2.25542,-4.30022 -1.30078,-7.23047 2.41324,-7.40722 -3.88452,-14.32508 -11.52539,-12.9375 -2.11927,0.38486 -4.171511,1.14458 -6.634763,1.84375 -9.594813,3.23741 -11.781471,7.95473 -8.158204,16.91602 0.436882,1.08052 0.942467,2.13357 1.392579,3.20898 17.295018,41.32153 34.555758,82.65696 51.943358,123.93945 1.30594,3.10065 0.83606,5.19377 -1.3457,7.57618 -4.72374,5.15813 -8.7945,10.97806 -13.87305,15.73632 -15.88186,14.88039 -23.99233,34.03128 -30.708983,54.03321 -1.710872,5.0949 0.10854,10.11975 4.402343,12.55078 0.430039,0.23357 1.038723,0.52366 1.267578,0.61523 -1.086932,4.68186 0.767069,9.13969 4.732422,11.38477 4.53709,2.56882 9.18723,1.66869 12.95508,-2.65625 l 6.60351,-9.50977 36.38477,-54.91406 c 2.27292,-3.43043 4.38556,-4.84698 8.53711,-3.16992 5.23375,2.11423 10.69104,3.69922 16.10547,5.33594 13.20921,3.99306 25.89974,9.86719 39.58789,12.05078 11.31404,1.80481 22.80346,2.49612 34.20898,3.74023 17.0212,1.8566 34.04279,3.71555 51.05078,5.6875 4.07599,0.47256 8.27006,0.38809 12.03321,2.66797 11.73669,7.11037 23.49805,14.184 35.34765,21.10352 l 0.01,-0.0117 c -0.3547,8.11147 -0.60993,16.22979 -0.71094,24.34765 -0.0663,5.32764 2.27732,9.25309 6.01758,10.96485 l -0.004,0.002 c -0.005,0.34445 -0.01,0.68876 -0.0137,1.0332 -0.0729,5.86189 2.75397,10.05539 7.16992,11.43555 4.79111,1.4974 9.36137,-0.42524 12.70313,-5.54297 3.55194,-5.43956 7.32896,-10.77483 10.35351,-16.50195 3.01624,-5.71142 6.99874,-8.63976 13.65235,-8.88281 5.20219,-0.18997 11.47756,-0.64503 13.2832,-6.86524 3.11517,-10.73115 10.7333,-14.77542 20.8418,-16.0625 1.79617,-0.22873 3.54111,-0.90359 5.29101,-1.43554 8.30657,-2.52493 11.00253,-9.26613 6.50586,-16.70704 -1.28406,-2.12476 -3.91406,-6.33789 -3.91406,-6.33789 l -0.0312,0.0234 c -0.21217,-1.80563 -0.86499,-3.71689 -2.05469,-5.68555 -4.30776,-7.12834 -8.90197,-14.0841 -13.23242,-21.19921 -2.59012,-4.25567 -6.12645,-6.18753 -11.1582,-6.11133 -11.32907,0.17147 -22.66576,-0.0947 -33.99219,0.14843 -3.86493,0.083 -6.02545,-1.11194 -7.7207,-4.66796 -8.2434,-17.2915 -16.77077,-34.44736 -25.13086,-51.6836 -2.17932,-4.49304 -4.19199,-9.10248 -5.10352,-14.04297 -5.45369,-29.55892 -10.78879,-59.13854 -16.32617,-88.68164 -0.49853,-2.65966 -0.18298,-4.26658 1.97852,-5.96289 3.89855,-3.05954 4.65173,-7.32314 2.80859,-11.70703 -1.87341,-4.455786 -5.69261,-6.399993 -10.48438,-6.128905 z" />
    </g>
    <path d="m 237.40854,388.00012 c -0.002,9.99936 0.0586,19.49927 -0.0282,28.99783 -0.0638,6.98304 -4.31874,11.83115 -10.52838,12.27057 -6.63011,0.46915 -11.40366,-3.73175 -12.36879,-10.97174 -0.24138,-1.8106 -0.35997,-3.65103 -0.36272,-5.47799 -0.0486,-32.16459 -0.0791,-64.32917 -0.0909,-96.49378 -0.002,-6.6791 0.64747,-7.24905 7.18823,-6.44577 3.79707,0.46634 7.57127,1.3551 11.37398,1.47464 4.03163,0.12677 4.84616,2.17139 5.0448,5.67606 0.89738,15.8338 -0.46709,31.64694 -0.23156,47.47183 0.11408,7.66446 0.009,15.33212 0.004,23.49835 z" />
    <path d="m 280.71063,369.99994 c 0.002,-16.30408 0.11768,-32.10944 -0.0612,-47.91144 -0.0519,-4.58755 1.45649,-5.82822 5.93158,-4.91647 4.53357,0.92361 9.21732,1.15942 13.84833,1.53595 2.64081,0.21469 3.87766,1.36661 3.87357,4.07071 -0.0349,23.12359 0.097,46.24835 -0.1069,69.37027 -0.0585,6.63208 -5.27872,11.17157 -11.69294,11.15872 -6.39071,-0.0128 -11.36429,-4.80722 -11.66864,-11.84989 -0.30139,-6.9747 -0.10257,-13.971 -0.12384,-21.45785 z"  />
    <path d="m 171.06561,356.8053 c -0.23054,2.78238 -0.20187,5.15335 -0.73779,7.389 -1.37132,5.7208 -6.70874,9.56443 -12.13158,9.00886 -6.00941,-0.61567 -10.43248,-5.13694 -10.49313,-11.35465 -0.14606,-14.97275 -0.0269,-29.94797 -0.10169,-44.92172 -0.0125,-2.50333 1.00307,-4.47168 2.31579,-6.43119 3.14749,-4.69836 6.41217,-9.32867 9.32594,-14.16921 1.68905,-2.80597 3.5672,-3.34156 6.60286,-2.43128 3.43158,1.02899 5.36973,2.51898 5.32287,6.53458 -0.18252,15.63763 -0.0901,31.27844 -0.0994,46.91809 -0.002,2.99484 -0.001,5.98965 -0.004,9.45752 z" />
    <path d="m 349.40643,444.21551 c -1.22131,-2.11132 -1.74923,-3.99111 -1.74743,-6.05465 0.0149,-17.16089 -0.007,-34.32178 0.0109,-51.48264 0.001,-0.95614 0.2533,-1.91199 0.37314,-2.75857 1.6304,-0.62625 2.39258,0.42242 3.22754,1.15677 4.4378,3.9031 9.51184,6.14422 15.50131,5.7145 3.28198,-0.2355 4.45776,1.15937 4.43698,4.33847 -0.0915,13.99466 0.0553,27.99186 -0.14841,41.98429 -0.0777,5.33148 -2.24365,9.98007 -7.72756,11.69061 -5.30985,1.65619 -10.25953,0.77652 -13.92646,-4.58878 z" />
  </g>
  <g style="display:inline;fill:#fff;fill-opacity:1" transform="translate(-84.315816,-96.868834)">
    <path d="m 94.12323,116.86105 c 2.463264,-0.69917 4.514564,-1.45841 6.63385,-1.84327 7.64091,-1.38758 13.93919,5.52963 11.52595,12.93689 -0.95464,2.93025 -0.55794,4.90181 1.29946,7.23031 11.53221,14.4572 22.95323,29.00331 34.36355,43.55724 1.48032,1.88814 3.28127,3.23723 5.33646,4.40872 11.43329,6.51721 22.8531,13.05885 34.22656,19.67966 2.24135,1.30474 4.51822,1.91363 7.09369,1.96432 18.31738,0.36049 36.6331,0.804 54.94989,1.19667 13.81964,0.29627 27.64328,0.45487 41.45807,0.89662 3.95456,0.12645 5.46665,-1.02014 5.90823,-5.20221 2.75663,-26.10643 5.82782,-52.17968 8.80951,-78.26225 0.64148,-5.6114 1.26456,-11.22683 2.04154,-16.8202 0.65518,-4.71647 4.17529,-7.887806 9.63397,-8.702724 3.28546,-0.490487 6.60611,-0.819542 9.92307,-1.007195 4.79177,-0.271088 8.61175,1.674583 10.48516,6.130389 1.84314,4.38389 1.09061,8.64644 -2.80798,11.70602 -2.1615,1.69631 -2.47845,3.30257 -1.97992,5.96227 5.53742,29.54322 10.87357,59.12408 16.3273,88.68312 0.91153,4.94049 2.92295,9.5486 5.10227,14.04168 8.36013,17.23632 16.88708,34.39246 25.13052,51.684 1.69525,3.55606 3.85587,4.75198 7.7208,4.669 11.32647,-0.24313 22.66317,0.0227 33.99228,-0.14877 5.03179,-0.0762 8.56826,1.85492 11.15838,6.11059 4.33045,7.11515 8.92435,14.07032 13.23215,21.1987 4.49667,7.44092 1.80188,14.18268 -6.5047,16.70761 -1.74994,0.53199 -3.49573,1.20755 -5.2919,1.43628 -10.10855,1.28708 -17.72632,5.3313 -20.84149,16.0625 -1.80564,6.22022 -8.07972,6.67435 -13.28196,6.86432 -6.65362,0.24305 -10.63653,3.17096 -13.65277,8.88239 -3.02459,5.72717 -6.80288,11.06335 -10.35486,16.50296 -3.34176,5.11774 -7.9114,7.04043 -12.70251,5.54303 -4.41599,-1.38016 -7.24225,-5.57337 -7.16934,-11.43527 0.11395,-9.15754 0.39764,-18.31672 0.83236,-27.4646 0.16971,-3.57114 -0.96072,-5.86097 -4.135,-7.70829 -12.52598,-7.28958 -24.94922,-14.75766 -37.34519,-22.26745 -3.76315,-2.27988 -7.95599,-2.19474 -12.03198,-2.6673 -17.00809,-1.97195 -34.02939,-3.83078 -51.05065,-5.68738 -11.40557,-1.24411 -22.89547,-1.93619 -34.20956,-3.741 -13.6882,-2.18359 -26.37801,-8.05676 -39.58731,-12.04986 -5.41444,-1.63672 -10.87161,-3.22327 -16.10541,-5.3375 -4.15155,-1.67706 -6.28363,-0.27163 -8.53836,3.17078 -13.05225,19.92768 -26.29073,39.7334 -39.48112,59.5705 -1.10511,1.66201 -2.20127,3.35461 -3.50732,4.85376 -3.76785,4.32498 -8.41649,5.22516 -12.953575,2.65634 -4.293823,-2.43103 -6.113327,-7.45728 -4.402451,-12.55222 6.716686,-20.00201 14.827186,-39.15173 30.709126,-54.03216 5.07855,-4.7583 9.14831,-10.57856 13.87205,-15.73673 2.18176,-2.38241 2.65289,-4.47442 1.34695,-7.57507 -17.38768,-41.28269 -34.6485,-82.61882 -51.943598,-123.94051 -0.450112,-1.07541 -0.95562,-2.12799 -1.392502,-3.20851 -3.623283,-8.96133 -1.436539,-13.67879 8.15831,-16.9162 z" />
    <path d="m 237.40854,388.00012 c -0.002,9.99936 0.0586,19.49927 -0.0282,28.99783 -0.0638,6.98304 -4.31874,11.83115 -10.52838,12.27057 -6.63011,0.46915 -11.40366,-3.73175 -12.36879,-10.97174 -0.24138,-1.8106 -0.35997,-3.65103 -0.36272,-5.47799 -0.0486,-32.16459 -0.0791,-64.32917 -0.0909,-96.49378 -0.002,-6.6791 0.64747,-7.24905 7.18823,-6.44577 3.79707,0.46634 7.57127,1.3551 11.37398,1.47464 4.03163,0.12677 4.84616,2.17139 5.0448,5.67606 0.89738,15.8338 -0.46709,31.64694 -0.23156,47.47183 0.11408,7.66446 0.009,15.33212 0.004,23.49835 z" />
    <path d="m 280.71063,369.99994 c 0.002,-16.30408 0.11768,-32.10944 -0.0612,-47.91144 -0.0519,-4.58755 1.45649,-5.82822 5.93158,-4.91647 4.53357,0.92361 9.21732,1.15942 13.84833,1.53595 2.64081,0.21469 3.87766,1.36661 3.87357,4.07071 -0.0349,23.12359 0.097,46.24835 -0.1069,69.37027 -0.0585,6.63208 -5.27872,11.17157 -11.69294,11.15872 -6.39071,-0.0128 -11.36429,-4.80722 -11.66864,-11.84989 -0.30139,-6.9747 -0.10257,-13.971 -0.12384,-21.45785 z" />
    <path d="m 171.06561,356.8053 c -0.23054,2.78238 -0.20187,5.15335 -0.73779,7.389 -1.37132,5.7208 -6.70874,9.56443 -12.13158,9.00886 -6.00941,-0.61567 -10.43248,-5.13694 -10.49313,-11.35465 -0.14606,-14.97275 -0.0269,-29.94797 -0.10169,-44.92172 -0.0125,-2.50333 1.00307,-4.47168 2.31579,-6.43119 3.14749,-4.69836 6.41217,-9.32867 9.32594,-14.16921 1.68905,-2.80597 3.5672,-3.34156 6.60286,-2.43128 3.43158,1.02899 5.36973,2.51898 5.32287,6.53458 -0.18252,15.63763 -0.0901,31.27844 -0.0994,46.91809 -0.002,2.99484 -0.001,5.98965 -0.004,9.45752 z" />
    <path d="m 349.40643,444.21551 c -1.22131,-2.11132 -1.74923,-3.99111 -1.74743,-6.05465 0.0149,-17.16089 -0.007,-34.32178 0.0109,-51.48264 0.001,-0.95614 0.2533,-1.91199 0.37314,-2.75857 1.6304,-0.62625 2.39258,0.42242 3.22754,1.15677 4.4378,3.9031 9.51184,6.14422 15.50131,5.7145 3.28198,-0.2355 4.45776,1.15937 4.43698,4.33847 -0.0915,13.99466 0.0553,27.99186 -0.14841,41.98429 -0.0777,5.33148 -2.24365,9.98007 -7.72756,11.69061 -5.30985,1.65619 -10.25953,0.77652 -13.92646,-4.58878 z" />
  </g>
</svg>
